<svg xmlns="http://www.w3.org/2000/svg" viewBox="0 0 450.04 81.19"><title>logo-d</title><g id="Calque_2" data-name="Calque 2"><g id="Calque_1-2" data-name="Calque 1"><circle cx="38.91" cy="38.91" r="4.64" style="fill:#39f"/><circle cx="38.91" cy="56.05" r="4.64" style="fill:#39f"/><circle cx="38.91" cy="73.18" r="4.64" style="fill:#39f"/><circle cx="56.05" cy="68.59" r="4.64" style="fill:#39f"/><circle cx="68.59" cy="56.05" r="4.64" style="fill:#39f"/><circle cx="73.18" cy="38.91" r="4.64" style="fill:#39f"/><circle cx="68.59" cy="21.78" r="4.64" style="fill:#39f"/><circle cx="56.05" cy="9.23" r="4.64" style="fill:#39f"/><circle cx="38.91" cy="4.64" r="4.64" style="fill:#39f"/><circle cx="21.78" cy="9.23" r="4.64" style="fill:#39f"/><circle cx="9.23" cy="21.78" r="4.64" style="fill:#39f"/><circle cx="4.64" cy="38.91" r="4.64" style="fill:#39f"/><circle cx="9.23" cy="56.05" r="4.64" style="fill:#39f"/><circle cx="21.78" cy="68.59" r="4.64" style="fill:#39f"/><circle cx="53.75" cy="47.48" r="4.64" style="fill:#39f"/><circle cx="53.75" cy="30.34" r="4.64" style="fill:#39f"/><circle cx="38.91" cy="21.78" r="4.64" style="fill:#39f"/><circle cx="24.07" cy="30.34" r="4.64" style="fill:#39f"/><circle cx="24.07" cy="47.48" r="4.64" style="fill:#39f"/><circle cx="38.91" cy="38.91" r="4.64" style="fill:#11103e"/><circle cx="38.91" cy="56.05" r="4.64" style="fill:#11103e"/><circle cx="38.91" cy="73.18" r="4.64" style="fill:#11103e"/><circle cx="56.05" cy="68.59" r="4.64" style="fill:#11103e"/><circle cx="68.59" cy="56.05" r="4.64" style="fill:#11103e"/><circle cx="73.18" cy="38.91" r="4.64" style="fill:#11103e"/><circle cx="68.59" cy="21.78" r="4.64" style="fill:#11103e"/><circle cx="56.05" cy="9.23" r="4.64" style="fill:#11103e"/><circle cx="38.91" cy="4.64" r="4.64" style="fill:#11103e"/><circle cx="21.78" cy="9.23" r="4.64" style="fill:#11103e"/><circle cx="9.23" cy="21.78" r="4.64" style="fill:#11103e"/><circle cx="4.64" cy="38.91" r="4.64" style="fill:#11103e"/><circle cx="9.23" cy="56.05" r="4.64" style="fill:#11103e"/><circle cx="21.78" cy="68.59" r="4.64" style="fill:#11103e"/><circle cx="53.75" cy="47.48" r="4.64" style="fill:#11103e"/><circle cx="53.75" cy="30.34" r="4.64" style="fill:#11103e"/><circle cx="38.91" cy="21.78" r="4.64" style="fill:#11103e"/><circle cx="24.07" cy="30.34" r="4.64" style="fill:#11103e"/><circle cx="24.07" cy="47.48" r="4.64" style="fill:#11103e"/><path d="M103.06,55.25A38.54,38.54,0,0,0,112,62.9a17.55,17.55,0,0,0,8.7,2.54,10.08,10.08,0,0,0,6.63-2.18,6.88,6.88,0,0,0,2.63-5.52A7.55,7.55,0,0,0,127.74,52q-2.33-2-10.27-4.1-10.81-2.94-15.32-7.6t-4.55-13q0-10.64,7.13-17.32t18.42-6.74A37.78,37.78,0,0,1,134.79,5a39.14,39.14,0,0,1,10.41,5l-6.35,14.54A26.27,26.27,0,0,0,131.77,20a19,19,0,0,0-7.13-1.47,9.63,9.63,0,0,0-5.92,1.77,5.26,5.26,0,0,0-2.28,4.46,5.73,5.73,0,0,0,2,4.46c1.38,1.11,4,2.18,7.8,3.19l.35.08a3.16,3.16,0,0,1,.46.12q12.36,3.3,16.31,7.4a17.94,17.94,0,0,1,4,6.53,25.55,25.55,0,0,1,1.32,8.51q0,11.76-7.75,19t-20.67,7.14a36.21,36.21,0,0,1-14.1-2.59A40.78,40.78,0,0,1,94,70.3Z" style="fill:#39f"/><path d="M161.62,79.21l-.1-38.39h-7.64V28.05h7.64V12.81h17.93V28.05H187V40.82h-7.55V79.21Z" style="fill:#39f"/><path d="M195.51,79.21V28.05h17V40.11q2.68-6.63,7.14-9.88a18.6,18.6,0,0,1,11.09-3.29,16.52,16.52,0,0,1,2.18.1l1,.08c.3,0,.69.06,1.16.12L233.4,43.65a27.55,27.55,0,0,0-3.24-.86c-1.35-.13-2.35-.2-3-.2q-6.58,0-10.18,4T213.44,58V79.21Z" style="fill:#39f"/><path d="M296.61,28.05V79.21H280v-8.3a24.34,24.34,0,0,1-8,7.8,20.86,20.86,0,0,1-10.35,2.48q-10.26,0-16.34-7.5A26.16,26.16,0,0,1,240.74,65a37.64,37.64,0,0,1-1.57-11.3q0-12.55,6.43-19.9t17.2-7.35a18.89,18.89,0,0,1,9.91,2.49,19.77,19.77,0,0,1,7.19,7.58V28.05Zm-15.9,25.56q0-6.07-3.19-9.41a11.21,11.21,0,0,0-8.69-3.53,11,11,0,0,0-8.59,3.43Q257,47.64,257,53.61t3.24,9.45c2.05,2.26,4.92,3.39,8.59,3.39a11.37,11.37,0,0,0,8.67-3.39Q280.71,59.67,280.71,53.61Z" style="fill:#39f"/><path d="M309.83,79.21V28.05h18V79.21Zm2.28-64.33h.1a6.06,6.06,0,0,1,2-4.66,6.51,6.51,0,0,1,4.76-2,6.6,6.6,0,0,1,4.84,1.87,6.44,6.44,0,0,1,1.9,4.76,6.52,6.52,0,0,1-2,4.87,6.74,6.74,0,0,1-9.62-.1A6.39,6.39,0,0,1,312.11,14.88Z" style="fill:#39f"/><path d="M342.6,79.21V28.05h16.52V38.44a25.43,25.43,0,0,1,8.3-9.12,20.93,20.93,0,0,1,11.28-2.89A24.47,24.47,0,0,1,387.61,28a16.58,16.58,0,0,1,6.24,4.66,16.15,16.15,0,0,1,2.9,6.23,57.81,57.81,0,0,1,.86,11.1V79.21H379.48V51.81q0-6.23-2-8.92c-1.32-1.85-3.45-2.78-6.42-2.78q-5.55,0-8.18,4.15t-2.58,13.48V79.21Z" style="fill:#39f"/><path d="M410.43,79.21V28.05h17V40.11q2.69-6.63,7.14-9.88a18.6,18.6,0,0,1,11.09-3.29,16.52,16.52,0,0,1,2.18.1l1,.08c.31,0,.69.06,1.17.12l-1.73,16.41a26.56,26.56,0,0,0-3.24-.86c-1.35-.13-2.34-.2-3-.2q-6.6,0-10.19,4T428.36,58V79.21Z" style="fill:#39f"/><path d="M103.06,55.25A38.54,38.54,0,0,0,112,62.9a17.55,17.55,0,0,0,8.7,2.54,10.08,10.08,0,0,0,6.63-2.18,6.88,6.88,0,0,0,2.63-5.52A7.55,7.55,0,0,0,127.74,52q-2.33-2-10.27-4.1-10.81-2.94-15.32-7.6t-4.55-13q0-10.64,7.13-17.32t18.42-6.74A37.78,37.78,0,0,1,134.79,5a39.14,39.14,0,0,1,10.41,5l-6.35,14.54A26.27,26.27,0,0,0,131.77,20a19,19,0,0,0-7.13-1.47,9.63,9.63,0,0,0-5.92,1.77,5.26,5.26,0,0,0-2.28,4.46,5.73,5.73,0,0,0,2,4.46c1.38,1.11,4,2.18,7.8,3.19l.35.08a3.16,3.16,0,0,1,.46.12q12.36,3.3,16.31,7.4a17.94,17.94,0,0,1,4,6.53,25.55,25.55,0,0,1,1.32,8.51q0,11.76-7.75,19t-20.67,7.14a36.21,36.21,0,0,1-14.1-2.59A40.78,40.78,0,0,1,94,70.3Z" style="fill:#11103e"/><path d="M161.62,79.21l-.1-38.39h-7.64V28.05h7.64V12.81h17.93V28.05H187V40.82h-7.55V79.21Z" style="fill:#11103e"/><path d="M195.51,79.21V28.05h17V40.11q2.68-6.63,7.14-9.88a18.6,18.6,0,0,1,11.09-3.29,16.52,16.52,0,0,1,2.18.1l1,.08c.3,0,.69.06,1.16.12L233.4,43.65a27.55,27.55,0,0,0-3.24-.86c-1.35-.13-2.35-.2-3-.2q-6.58,0-10.18,4T213.44,58V79.21Z" style="fill:#11103e"/><path d="M296.61,28.05V79.21H280v-8.3a24.34,24.34,0,0,1-8,7.8,20.86,20.86,0,0,1-10.35,2.48q-10.26,0-16.34-7.5A26.16,26.16,0,0,1,240.74,65a37.64,37.64,0,0,1-1.57-11.3q0-12.55,6.43-19.9t17.2-7.35a18.89,18.89,0,0,1,9.91,2.49,19.77,19.77,0,0,1,7.19,7.58V28.05Zm-15.9,25.56q0-6.07-3.19-9.41a11.21,11.21,0,0,0-8.69-3.53,11,11,0,0,0-8.59,3.43Q257,47.64,257,53.61t3.24,9.45c2.05,2.26,4.92,3.39,8.59,3.39a11.37,11.37,0,0,0,8.67-3.39Q280.71,59.67,280.71,53.61Z" style="fill:#11103e"/><path d="M309.83,79.21V28.05h18V79.21Zm2.28-64.33h.1a6.06,6.06,0,0,1,2-4.66,6.51,6.51,0,0,1,4.76-2,6.6,6.6,0,0,1,4.84,1.87,6.44,6.44,0,0,1,1.9,4.76,6.52,6.52,0,0,1-2,4.87,6.74,6.74,0,0,1-9.62-.1A6.39,6.39,0,0,1,312.11,14.88Z" style="fill:#11103e"/><path d="M342.6,79.21V28.05h16.52V38.44a25.43,25.43,0,0,1,8.3-9.12,20.93,20.93,0,0,1,11.28-2.89A24.47,24.47,0,0,1,387.61,28a16.58,16.58,0,0,1,6.24,4.66,16.15,16.15,0,0,1,2.9,6.23,57.81,57.81,0,0,1,.86,11.1V79.21H379.48V51.81q0-6.23-2-8.92c-1.32-1.85-3.45-2.78-6.42-2.78q-5.55,0-8.18,4.15t-2.58,13.48V79.21Z" style="fill:#11103e"/><path d="M410.43,79.21V28.05h17V40.11q2.69-6.63,7.14-9.88a18.6,18.6,0,0,1,11.09-3.29,16.52,16.52,0,0,1,2.18.1l1,.08c.31,0,.69.06,1.17.12l-1.73,16.41a26.56,26.56,0,0,0-3.24-.86c-1.35-.13-2.34-.2-3-.2q-6.6,0-10.19,4T428.36,58V79.21Z" style="fill:#11103e"/></g></g></svg>