<svg xmlns="http://www.w3.org/2000/svg" viewBox="0 0 186.99 102.05"><title>strainer-l</title><g id="Calque_2" data-name="Calque 2"><g id="Calque_1-2" data-name="Calque 1"><path d="M107.24,100.48a64.45,64.45,0,0,1-18,1.5,69.87,69.87,0,0,1-16.18-2.54,4.43,4.43,0,0,1-1.76-.85,3.42,3.42,0,0,0-2.88-.83,4.64,4.64,0,0,1-2.67-.7c-.8-.39-1.59-.81-2.41-1.15a8.62,8.62,0,0,1-3.62-2.34A2.74,2.74,0,0,0,57,92.47c-.57.12-1-.32-1.4-.58A63,63,0,0,1,39.72,78.36c-.24-.28-.51-.55-.77-.82a1.69,1.69,0,0,1-.9-.63c-.45-1.16-.3-2.51-1.32-3.5-.6-.58-1-1.33-2-1.15-.36.06-.59-.23-.77-.52A96.63,96.63,0,0,1,28.5,61a9.31,9.31,0,0,1-.63-2.31c-.1-.64,0-1.29.64-1.56s1.1.3,1.38.73a29.62,29.62,0,0,1,1.91,3.77c.43.9.83,1.8,1.32,2.65a3,3,0,0,1,.35.77,1,1,0,0,0,1.14.63,1,1,0,0,0,.93-.92,3.84,3.84,0,0,0-.13-2c-.37-1.31-.68-2.64-1-4a1.49,1.49,0,0,1,.82-2c1.63-.21,3.26-.31,4.9-.47A5.85,5.85,0,0,1,42,56.7a7.74,7.74,0,0,1,1.68,3,20.72,20.72,0,0,0,1,2c.12.45-.18.8-.31,1.19a2.43,2.43,0,0,0,1.27,3.27,2.76,2.76,0,0,1,2,1.63c2.13,4.1,5,7.69,7.78,11.39a1.85,1.85,0,0,0,.68.49,6.14,6.14,0,0,0,2.66,2.72c.85,1.47,2.34,2.3,3.52,3.44A40.34,40.34,0,0,0,67.59,90a19.35,19.35,0,0,1,2.74,2.21,3.85,3.85,0,0,0,3.85,2.12c2.56.73,4.88,2,7.4,2.88a60.62,60.62,0,0,0,18,3.39c1.49,0,2.66-1,4.09-1,.54,0,.62-.64,1-.83,1.41-.28,2.76.26,4.16.27a.59.59,0,0,1,.64.6c0,.35-.38.37-.63.43A4.82,4.82,0,0,1,107.24,100.48Z" style="fill:#cacaca"/><path d="M23.14,39.27c1.41-1.64,3.39-2.39,5.28-3.21,5.69-2.46,11.51-4.59,17.36-6.63,14.88-5.19,30-9.77,45.09-14.13,9.09-2.63,18.2-5.17,27.38-7.47C129.35,5,140.44,2.21,151.78.48c2.12-.32,4.28-.83,6.45-.13a.39.39,0,0,1,.15.42,2.37,2.37,0,0,1-1.33,1.94,63.08,63.08,0,0,1-10,4.41,33.6,33.6,0,0,1-4,1.6,22.36,22.36,0,0,0-2.75,1.07c-4.73,1.59-9.41,3.32-14.2,4.75A2.4,2.4,0,0,0,124.09,17a1,1,0,0,1-.38.88.74.74,0,0,1-1-.3c-1-1.45-2.34-1.27-3.67-.72a113.6,113.6,0,0,1-11,3.4c-4.39,1.31-8.74,2.75-13.13,4C85.68,27,76.29,29.33,67,32.09a3.52,3.52,0,0,1-1,.22c-2.11.11-3.65.88-3.88,3.23a.76.76,0,0,1-.44.21.72.72,0,0,1-.61-.31c-.89-1.69-2.3-1.56-3.8-1.13-3.63,1-7.32,1.82-11,2.68-1.31.31-1.51.65-1.55,2.7a.86.86,0,0,1-.36.32.77.77,0,0,1-.66-.08A3.69,3.69,0,0,0,38.23,39a1.33,1.33,0,0,0-.52,1c-.06.46-.05,1-.62,1.16a.69.69,0,0,1-.42-.1,3,3,0,0,0-3.51-1.37,50.06,50.06,0,0,1-6.58,1,6.82,6.82,0,0,1-2.25-.15,1.35,1.35,0,0,1-1.11-1.08Z" style="fill:#929292"/><path d="M92.69,27.51c-8.43,2.56-17,4.73-25.46,7-9.69,2.56-19.41,5-29.3,6.69-1.68.29-3.38.43-5.08.58-.52,0-1.28.23-1.45-.49s.51-.83,1-1.1a38.91,38.91,0,0,1,6.56-3c7-2.63,14.15-5.07,21.29-7.44,16-5.31,32.19-9.9,48.42-14.38,10.7-3,21.5-5.61,32.38-7.88A62.58,62.58,0,0,1,150.81,6c.55,0,1.3-.21,1.51.44s-.53.93-1,1.2a48.45,48.45,0,0,1-7.5,3.35c-7.69,2.94-15.49,5.53-23.34,8Q106.63,23.41,92.69,27.51Z" style="fill:#39f"/><path d="M35.27,57.65c-.37,1.09.15,2.09.33,3.12s.54,1.89.73,2.86c.32,1.67-.08,2.53-1.2,2.91-1.49.52-2-.47-2.49-1.56a4.39,4.39,0,0,0,.09-4.52c-.53-1.2-.93-2.47-1.56-3.63a5.1,5.1,0,0,0-5-2.86,53.68,53.68,0,0,0-7.46,1.21C14.07,56,9.43,57,4.64,56.81a4.74,4.74,0,0,1-2.29-.62c-1.06-.62-1.58-1.4-1-2.62A13.9,13.9,0,0,1,8.08,49.9C13,48.74,18,47.74,23,46.69a9.23,9.23,0,0,1,1.4-.1c1.64-.38,2.17-.2,3.14,1.41a8.7,8.7,0,0,0,2.66,2.84,14.39,14.39,0,0,1,3.66,4.07C34.12,55.93,35.46,56.4,35.27,57.65Z" style="fill:silver"/><path d="M160.85,7.33c2.31-1.56,5-2.06,7.59-3a85.46,85.46,0,0,1,9.17-3.27,14.5,14.5,0,0,1,6.71-.22c1.21,1.39,1.2,2.21-.1,3.6a15.18,15.18,0,0,1-4.71,3.12,134.15,134.15,0,0,1-12.65,5.24,19.8,19.8,0,0,0-1.94.87c-3.79,1.77-4.78,3.76-3.95,7.87.16.78.36,1.56.47,2.36.29,2.09.63,2.44,2.63,2.91.93.72.62,1.61.28,2.46a5.32,5.32,0,0,1-.91,1.26c-.95.67-1.6-.36-2.41-.44a3.31,3.31,0,0,1-2.19-2.51c-.19-.77-.49-1.52-.65-2.3a3.52,3.52,0,0,0-1.44-2.14,1.11,1.11,0,0,1,.19-1.29,3.31,3.31,0,0,0,.53-2.56A14,14,0,0,1,158.79,13a4.55,4.55,0,0,0,.28-2.34C159,8.57,159.32,8,160.85,7.33Z" style="fill:silver"/><path d="M160.85,7.33a3.6,3.6,0,0,0-1,3.39,4.14,4.14,0,0,1-.57,2.94c-1,1.74-.94,3.73-1.21,5.64A3.5,3.5,0,0,1,156.2,21c-1.53.62-2.83,1.72-4.49,2.07a2.29,2.29,0,0,1-1.77-1.81c-1-3.39-2-6.79-2.93-10.19a2.82,2.82,0,0,1,0-1.92c1-1.48,2.75-1.73,4.19-2.47s3.14-1.3,4.7-1.95,2.4-1.42,2.24-3.11a3,3,0,0,1,.13-.94l-.05-.34c1.08,1.7,1.18,3.74,1.85,5.58C160.26,6.43,160.16,7.1,160.85,7.33Z" style="fill:#7d7d7d"/><path d="M33.4,55.19c-1.62-1.72-2.95-3.78-5.25-4.78-.5-.22-.55-.85-.79-1.3-.65-1.24-1.41-2.34-3-2.52.65-.49.29-1.09.16-1.66-.42-1.9-1.36-3.67-1.42-5.66l.14.07C25,42,25.16,42.11,27.72,41.71s5-.9,7.54-1.1a2.63,2.63,0,0,1,1.64.23l0,.1c.32.27.72.4,1,.68a3.21,3.21,0,0,1,.24.45c.66,4.14,1.92,8.13,2.88,12.2a1.19,1.19,0,0,1-1,.8c-1.73.2-3.45.46-5.19.54A2,2,0,0,1,33.4,55.19Z" style="fill:#7d7d7d"/><path d="M1.33,53.57c.41,1.68,1.31,2.41,3.26,2.54,3.62.23,7.16-.47,10.7-1,3.13-.51,6.22-1.24,9.35-1.72,4.16-.63,6.18.51,7.81,4.4a20.67,20.67,0,0,1,1.85,5.49c.14,1.24-.29,1.94-1.66,1.73q-1.39-2.85-2.77-5.71c-.29-.58-.5-1.22-1.25-1.53-.1,1.15.68,2,.74,3.11a8.69,8.69,0,0,1-1.26-3.57A2.68,2.68,0,0,0,25.42,55a16.23,16.23,0,0,0-5.33.57c-5,1-10.13,1.68-15.21,2.47A2.11,2.11,0,0,1,4.33,58a10.29,10.29,0,0,0-1.24-.18c-1.14,0-2.35,0-2.9-1.22S.5,54.42,1.33,53.57Z" style="fill:#626262"/><path d="M163.88,27.11c-1.22.91-1.87.84-2.36-.52A20.78,20.78,0,0,1,160,18.13c.15-2.4,1.73-3.86,3.77-4.75,3-1.31,6.16-2.44,9.2-3.73a50.82,50.82,0,0,0,9.77-4.85c1.67-1.17,2.08-2.28,1.55-4A3.91,3.91,0,0,1,187,2.7a4,4,0,0,1-2.27,3.05,62.25,62.25,0,0,1-8.8,4.2c-2.81,1.2-5.67,2.3-8.51,3.45a14.75,14.75,0,0,0-1.65.8c-2.39,1.39-2.64,2.06-1.89,4.68a6.29,6.29,0,0,1,.5,2.75c-.69,0-.54-.63-.71-.91.31,1.74.51,3.58.79,5.4C164.54,26.72,164.45,27,163.88,27.11Z" style="fill:#616161"/><path d="M107.24,100.48l1.54-.57c-1.43.16-2.75-.55-4.15-.5a3.69,3.69,0,0,1-3-.34,41.49,41.49,0,0,1-14.23-9.81C80.28,82,75.07,73.4,70.7,64.28A94.22,94.22,0,0,1,66.6,54c-.17-.5-.5-1-.08-1.61a3.18,3.18,0,0,1,.44-.26c1.63-1,3.53-1,5.32-1.38,2.26-.48,4.53-1,6.76-1.53,9.72-2.43,19.39-5,28.94-8,3.6-1.13,7.19-2.31,10.82-3.34a4.2,4.2,0,0,1,2.71.32,3.29,3.29,0,0,0,3-.31c2.11-.93,4-.6,4.72,1.69.25.83.7,1.71-.17,2.49-.29.26-.06.49.12.72a.84.84,0,0,1,.09,1.05c-.4.52-.08.9.18,1.27s.49.62.44.83c-.31,1.24.48,1.71,1.36,2.16.73,2.24.54,4.58.75,6.87a110.21,110.21,0,0,1-.18,14.31,1,1,0,0,1-.4.86c-.72.32-1-.25-1.32-.69A1.46,1.46,0,0,0,127.62,71c.4.62,1,.58,1.63.33s.91-.75,1.54-.31a1.55,1.55,0,0,1,.42,1.67c-.38,2.13-.69,4.27-1.27,6.35a1.14,1.14,0,0,1-1.28.32,1.66,1.66,0,0,0-1.37.17,1.3,1.3,0,0,0-.73,1.27,1,1,0,0,0,1,.88c.28.05.58,0,.78.28a1.58,1.58,0,0,1,.15,1.73A32.67,32.67,0,0,1,122.62,94c-.83,1-2.18,1.33-2.83,2.48l.12.38A49.54,49.54,0,0,1,107.24,100.48Z" style="fill:#aaa"/><path d="M163.88,27.11c-.2-2.87-.83-5.71-.9-9,1,1.26.87,2.53,1.39,3.53a59.67,59.67,0,0,1,.41,22c-1.4,1.58-1.23,3.47-1.05,5.36A68.38,68.38,0,0,1,145,80.89,74.12,74.12,0,0,1,121.6,96.27a6.75,6.75,0,0,1-.68.19c-.36-.63.34-.91.44-1.39a1.26,1.26,0,0,1,.37-.27c3.31-.25,5.64-2.47,8-4.38a60.75,60.75,0,0,0,12.14-13c.93-1.37,1.85-2.74,2.65-4.19.19-.34.34-.68.78-.74a1.22,1.22,0,0,1,.78.26c.88.65,1.5.29,1.91-.55s.05-1.42-.85-1.66a1.15,1.15,0,0,1-.35-.24.94.94,0,0,1-.1-1.17,100.09,100.09,0,0,0,4.68-13.35.88.88,0,0,1,.28-.47,10.2,10.2,0,0,1,1-.41,1.9,1.9,0,0,0,1.26-1.7,1.4,1.4,0,0,0-1.05-1.59,1.49,1.49,0,0,1-.6-.57,1.92,1.92,0,0,1-.12-1.39c1.12-6.88.62-13.75-.3-20.61a34.15,34.15,0,0,1-.42-3.66.73.73,0,0,1,.19-.44,23,23,0,0,1,4-2.29,1,1,0,0,1,1.39.16c1-.33,1.43,0,1.6,1.06a10.13,10.13,0,0,0,2.47,5.8,1.13,1.13,0,0,1,.48,1.1,3.24,3.24,0,0,0,.06,1.12c.09.35.12.86.61.79s.32-.51.35-.83c.05-.54-.19-1.15.41-1.54-.14-.77.57-1.14.82-1.72A2.33,2.33,0,0,0,163.88,27.11Z" style="fill:#cacaca"/><path d="M121.87,95.64l-1,.82-1,.38-.79.11C119.8,95.72,121,95.12,121.87,95.64Z" style="fill:#eaeaea"/><path d="M66.64,52.75c1.23,2.2,1.85,4.64,2.83,6.93A109.58,109.58,0,0,0,79.68,78.6,64.2,64.2,0,0,0,93.14,93.43a32.61,32.61,0,0,0,10.19,5.43,12.35,12.35,0,0,1,1.3.55c.47.85-.13.81-.68.81-1,.75-2.19.54-3.27.55a39.24,39.24,0,0,1-19.19-4.94,59,59,0,0,1-11.37-7.66c-.5-.44-1.21-.89-.59-1.75.14-.13.24-.31.43-.36.54-.18,1.15-.33,1.1-1.07a1.43,1.43,0,0,0-1.14-1.29,1,1,0,0,0-1.44.73c-1,1.18-1.21,1.22-2.2.24a77.6,77.6,0,0,1-10-12.44A5,5,0,0,1,55.41,70a3.19,3.19,0,0,1-.1-.68c.1-2.21-.15-2.61-2.17-3.42-2.2-2.35-2.94-5.44-4.11-8.31a2.62,2.62,0,0,1,0-1.81c1.23-1,2.81-1,4.25-1.26,3.57-.64,7.16-1.21,10.71-2C64.85,52.34,65.82,51.94,66.64,52.75Z" style="fill:#cacaca"/><path d="M55.86,69.71c1.11,2.77,3,5,4.77,7.36a68.69,68.69,0,0,0,6,7c.61.63.86.54,1-.25,1,.76,2.06,1.47,2.29,2.84.8,1.8,2.56,2.59,4,3.66a51.08,51.08,0,0,0,17.67,8.76c4,1,8.12,1.85,12.32,1.16-1.16,1-2.59.8-3.92.83a52.88,52.88,0,0,1-23.56-5.12c-.81-.37-1.65-.69-2.47-1a2.4,2.4,0,0,1-.42-.57c-.76-1.61-1.23-1.87-3-1.63a2.34,2.34,0,0,1-.7,0,91.42,91.42,0,0,1-10.19-8c-.54-.53-1-1.08-1.52-1.65a7,7,0,0,1,.36-.9,1.36,1.36,0,0,0-.24-1.79,1.45,1.45,0,0,0-1.77-.4,2.36,2.36,0,0,1-.93.26,48.75,48.75,0,0,1-7.11-9.25,9.46,9.46,0,0,1-.57-1c-.72-1.35-1.38-2.77-3.17-3a3.09,3.09,0,0,1,.4-.57c1-1,1.05-1.77.09-2.82-.39-.42-1.08-.63-1-1.38-1.43-1.44-1.69-3.43-2.43-5.19a2.29,2.29,0,0,1,0-.25A1.51,1.51,0,0,1,43.11,56c1.3-.21,2.6-.4,3.9-.54a2.47,2.47,0,0,1,2.25.5A57.5,57.5,0,0,0,52.4,63.8,2.45,2.45,0,0,0,54,65.26c-1.53,2.82-1,3.28,1.65,4.26C55.74,69.55,55.8,69.65,55.86,69.71Z" style="fill:#aaa"/><path d="M33.4,55.19l7.41-.95.22-.13a.73.73,0,0,1,.44.21,2.06,2.06,0,0,1,.43,2.54l-.07.13-6.56.66C34.13,57.22,33.83,56.16,33.4,55.19Z" style="fill:#aaa"/><path d="M44.24,39.72l.31-.14c.17-.73.78-.91,1.38-1,4.85-.92,9.65-2.06,14.49-3a2.68,2.68,0,0,1,1.26,0l0,0a1.29,1.29,0,0,1,.64.46,6.35,6.35,0,0,1,.83,2.08c1.07,3.45,1.85,7,3.15,10.37a3,3,0,0,1,.1,1.52,1.19,1.19,0,0,1-.34.4c-1,.81-2.24.7-3.37.94-4.07.89-8.17,1.57-12.27,2.27a4.76,4.76,0,0,1-2.37,0,1.1,1.1,0,0,1-.35-.42,7.43,7.43,0,0,1-1-2.33c-.86-3-1.75-6-2.57-9C44,41.15,43.63,40.41,44.24,39.72Z" style="fill:#7c7c7c"/><path d="M126.59,13.6c.31-.16-2.46,3.58-2,3.57s.66.13.92-.16c.86-1,2.11-1.08,3.23-1.5,1.79-.57,3.5-1.33,5.26-2a1.75,1.75,0,0,1,1.5-.1c.48.22,1,.38,1,1s-.38.79-.79,1.06c-2.63,1.72-5.38,3.27-8,5a1.54,1.54,0,0,0-.73,1.82,46.61,46.61,0,0,0,2.27,7.29c.87,1.89.5,2.45-1.71,2.49-.85-.3-1-1.06-1.24-1.78-.81-2.72-1.58-5.45-2.37-8.17s-1.47-3.27-4.3-2.27c-4.1,1.44-8.22,2.82-12.37,4.07q-15.74,4.75-31.6,9.11c-4.09,1.12-8.2,2.22-12.38,3a2.66,2.66,0,0,1-1.4,0c-.05-.18-1.31.57-1.36.39s-5.65-2.07-5.66-2.21C56.35,34.44,59.47,33,64,32c7.23-1.54,14.18-4,21.33-5.83,3-.76,6.1-1.36,9-2.39,7.14-2.5,14.49-4.32,21.71-6.54,1.49-.46,3-.84,4.48-1.3" style="fill:#7c7c7c"/><path d="M44.24,39.72Q46.16,46.38,48.09,53c-.12.26-.23.58-.49.67-2.13.72-4.27,1.58-6.55.54h0c-1.29-3.49-2.09-7.13-3.2-10.67a5.21,5.21,0,0,0-.66-1.84h0A1.18,1.18,0,0,1,38,40.3a18.53,18.53,0,0,1,5.15-1.12c.3,0,.5.22.75.35Z" style="fill:#464646"/><path d="M61.68,35.52a7.05,7.05,0,0,1-3.41,1.26c-4.57,1-9.14,1.87-13.72,2.8-1.33-2.12-1.08-2.78,1.31-3.27,3.93-.81,7.84-1.73,11.71-2.8l.55-.14C60.81,32.82,60.9,32.87,61.68,35.52Z" style="fill:#aaa"/><path d="M134.17,14.36c-2,.38-3.67,1.51-5.62,1.93-1.3.59-2.7.93-4,1.48l-.92-.05c-.76-2.84-.69-2.94,2.13-3.86l14.32-4.74a2.68,2.68,0,0,1,.74,2.67,3.8,3.8,0,0,1-3.16,1.76,9,9,0,0,0-1.94.18C135.23,14,134.6,13.94,134.17,14.36Z" style="fill:#aaa"/><path d="M158.28.69c1.12,3.21,1.14,3.25-2,4.65-2.91,1.3-5.87,2.5-8.81,3.73a.48.48,0,0,1-.34.21,2.83,2.83,0,0,0-3.24-.86c-.39.16-.93.26-1.16-.37,1.83-1.25,4.06-1.43,6-2.3,2.37-1,4.8-2,7.1-3.18A7.61,7.61,0,0,0,158.28.69Z" style="fill:#aaa"/><path d="M36.9,40.84a82.07,82.07,0,0,1-12,1.86c-.61.06-.86-.26-1-.77-.23-.86-.44-1.73-.66-2.59,1.69,1.2,3.54.6,5.32.38,2-.25,4.08-.68,6.1-1.1S36.51,39.76,36.9,40.84Z" style="fill:#aaa"/><path d="M142.71,8.05A14.5,14.5,0,0,0,145,7.37c1.25-.6,1.81-.14,2,1.1a5.48,5.48,0,0,0,.17.67,2.11,2.11,0,0,1-1.53,1.47c-1.17.33-2.21,1-3.41,1.26-.59.12-1.2.34-1.68-.25a6.31,6.31,0,0,1-.47-2.5Z" style="fill:#d4d4d4"/><path d="M11.46,51.5c3.27-.78,6.55-1.5,9.88-2a4.2,4.2,0,0,1,3.16.4c.23.16.5.36.37.68a.57.57,0,0,1-.47.21c-4.64-.08-8.89,1.74-13.32,2.65-.88.19-1.77.34-2.66.46-.44.06-1.09.26-1.23-.31s.54-.71,1-.88C9.23,52.28,10.35,51.91,11.46,51.5Z" style="fill:#353535"/><path d="M172.32,7.14c-3.06,1-6.18,1.76-8.89,3.59-.22.14-.5.41-.73.08a.88.88,0,0,1,0-.66,2.32,2.32,0,0,1,1.17-1.36,54.91,54.91,0,0,1,14.22-5c.43-.08,1.09-.29,1.25.28s-.51.71-.91.9A46.85,46.85,0,0,1,172.32,7.14Z" style="fill:#373737"/><path d="M157,22.85c-1.78.71-3.33,1.91-5.21,2.38-1.17-.36-1-1.3-1-2.21.12-.54.77-.36,1-.74l6.23-3C158.12,20.6,158.63,22,157,22.85Z" style="fill:#aaa"/><path d="M151.85,22.28l-.75.51a2.44,2.44,0,0,1-1.38,1.35c-1.7.69-3.33,1.54-5,2.24-.48.14-.93.45-1.45.19a.73.73,0,0,1-.3-1c.63-1.08.23-2.1-.07-3.13-.7-2.44-1.38-4.89-2.11-7.32-.52-1.7-1-1.93-2.69-1.44a3.61,3.61,0,0,1-2.61,0,48.53,48.53,0,0,1,5.07-2.07,40.28,40.28,0,0,0,6.62-2.48l.29-.07a5.72,5.72,0,0,0,.38,2.35c.91,3.15,1.81,6.31,2.73,9.47C150.76,21.55,150.87,22.33,151.85,22.28Z" style="fill:#929292"/><path d="M37.19,41.73A4.18,4.18,0,0,1,38,43.52q1.55,5.35,3.08,10.72h-.24Q39,48,37.19,41.73Z" style="fill:#606060"/><path d="M121.87,95.64c-1.11,0-1.87.79-2.75,1.31-.3.08-.58.33-1.07.12,5.15-3.72,8.22-8.8,10-14.71,0-1.31.88-2.3,1.38-3.43,0-1.7.58-3.3.79-5a9.05,9.05,0,0,0,.27-2.64c-.46-.67-.43-1.18.47-1.38a110.66,110.66,0,0,0-.37-21.76c-1-.64-.63-1.8-1-2.69a10.41,10.41,0,0,1-.44-3.88,9.87,9.87,0,0,0-1.07-4,2.57,2.57,0,0,1,1.38-3.75c4.27-1.67,8.58-3.23,12.76-5.11a4.6,4.6,0,0,1,2.76-.48,1.33,1.33,0,0,1,.46.23c.95,1,.76,2.28,1,3.45,1.06,5.48,1,11,1,16.58a5.49,5.49,0,0,1-.18,1.4c-.3.53-.74.57-1.32.49-1.19-.19-1.86.3-2,1.35s.32,1.53,1.55,1.67a2.5,2.5,0,0,1,.93.27c.56.47.47,1.09.42,1.7a36.91,36.91,0,0,1-1,5.71,2.46,2.46,0,0,1-.71.65c-2.31,1.42-2.34,2.31-.12,3.69a.68.68,0,0,1,.09.67c-2.36,4.45-3.81,9.33-6.53,13.62a42.23,42.23,0,0,1-16.82,15.85Z" style="fill:#cacaca"/><path d="M65.86,50l.3-.1c.21-.78.87-1,1.51-1.09,4.06-.91,8.07-2,12.13-2.92,8.42-1.83,16.69-4.21,24.93-6.69,3.08-.92,6.12-2,9.15-3a13.29,13.29,0,0,1,5.21-1c.09,0,.23-.06.28,0,1.21,1.17,2.82,1.1,4.32,1.41a.83.83,0,0,1,.1.51,1.28,1.28,0,0,1-.42.69,4.61,4.61,0,0,1-2.7.31,1.22,1.22,0,0,0-1.15.36c-9.75,3-19.46,6.12-29.32,8.72-7.71,2-15.43,4-23.27,5.55A2.14,2.14,0,0,1,65.86,50Z" style="fill:#7d7d7d"/><path d="M119.52,38.39a11.14,11.14,0,0,1,3.49-1.3,5.9,5.9,0,0,0,1.46-.12,1.27,1.27,0,0,1-1,0v-.26c0-.78.62-.9,1.13-1.05,1.37-.42,2.39-1.12,2.53-2.68a1,1,0,0,1,.63-.89c2-.84,3.71-2.2,5.81-2.89,2.64-.85,5.19-2,7.78-3,.62-.24,1.24-.56,1.83.07l1.37-.38c1.21.8,1.34,1.56.47,2.78q-7.77,3-15.57,6a1.53,1.53,0,0,0-1,2.07c.56,1.62.57,3.35,1.13,5,.14,1.24.29,2.48.48,3.71.17.94.34,1.87.5,2.8-.3.12-.68.09-.74-.19-.33-1.52-1.58-2.78-1.29-4.51-.51-.12-1.31.33-1.52-.54-.16-.68.36-1.09.91-1.24.74-.21,1-.51.83-1.3s-.32-1.78-1.31-2A4.17,4.17,0,0,1,125.8,38c-.41-.26-.74.07-1,.38-1,1.5-2.63.6-3.94.91C120.43,39.38,120.53,37.89,119.52,38.39Z" style="fill:#aaa"/><path d="M65.86,50a8.43,8.43,0,0,1,1.07,2.64l-.29.09C60.88,54,55.07,55,49.26,56a4.49,4.49,0,0,1-2.26.34c.24-.83.93-1.54.65-2.53a.43.43,0,0,1,.55-.46L61,51Z" style="fill:#aaa"/><path d="M121.86,95.64c2.13-1.63,4.5-2.93,6.52-4.72a47.76,47.76,0,0,0,9.47-11.17,51.28,51.28,0,0,0,5.56-12,3.45,3.45,0,0,1,1.44-2c-.06-.17-.24-.4-.14-.51,1-1.2.94-2.63.85-4.06-.35-.86.09-1.66.21-2.48A15.9,15.9,0,0,0,146.2,54c-.12-.14-.35-.28-.3-.44.37-1.15.23-2.44.92-3.5a82.05,82.05,0,0,0-1.23-19.35c-.12-.6-.26-1.2-.39-1.8,0-.14,0-.29.05-.41.51-1.54,5.11-3.61,6.64-3a69.85,69.85,0,0,1,1.62,17.78,58.65,58.65,0,0,1-.75,7.72c.11.1.26.24.21.34a8.12,8.12,0,0,0-.63,3.8c0,.18-.21.3-.33.43a67.74,67.74,0,0,1-5,14.47,2.87,2.87,0,0,1-1.47,2.83,59,59,0,0,1-13,16,87,87,0,0,1-7.46,5.38A9.16,9.16,0,0,1,121.86,95.64Z" style="fill:#eaeaea"/><path d="M151.89,25.53c-2.33.94-4.77,1.66-6.69,3.4l-.12-.3a7.75,7.75,0,0,0-.48-2.78,36.37,36.37,0,0,1,6.5-3.06l.72,2.44Z" style="fill:#d4d4d4"/><path d="M48.2,53.33a6.6,6.6,0,0,0,.14.67c.54,1.8.54,1.8-1.34,2.32l-5.1.54-.85-2.62c2.35-.39,4.76-.44,7-1.21Z" style="fill:#636363"/><path d="M114.38,36.92c-7.2,2.29-14.41,4.54-21.69,6.52C83.9,45.81,75,47.9,66.16,49.92c-1.66-3.6-2.35-7.51-3.56-11.26-.27-.84-.5-1.71-.75-2.56A6.8,6.8,0,0,1,64.76,35c5.39-1.23,10.75-2.57,16.07-4.11,8.85-2.56,17.73-5.07,26.57-7.71,4.75-1.42,9.43-3.08,14.15-4.6,1.8-.58,1.94-.47,2.48,1.37q1.44,5,2.87,10a6.56,6.56,0,0,0,.79,2,1.88,1.88,0,0,1-1.27,1.4,27.06,27.06,0,0,1-7.21,2.16A15.07,15.07,0,0,0,114.38,36.92Z" style="fill:#464646"/><path d="M114.38,36.92c2.7-1.24,5.6-1.93,8.38-3a27.62,27.62,0,0,0,4.93-2.06c1.27-.21,1.44-.73.87-1.94-1.3-2.83-1.88-5.91-2.73-8.9-.12-.4-.13-1.05.38-1,2,0,2.92-1.8,4.54-2.33s2.61-2,4.15-2.62c.31-.13.88-.21.69-.69s-.66-.16-1-.11c-.14,0-.27.07-.41.1a3.05,3.05,0,0,1,1.3-.67,20.8,20.8,0,0,0,3.74-1.25c1-.49,1.49-.12,1.77.85,1.09,3.71,2.14,7.41,3.3,11.09.36,1.14-.5,1.35-1.05,1.85-4.82,1.88-9.64,3.78-14.46,5.65-.74.29-1.09.75-.87,1.52.37,1.3-.33,2-1.41,2.35s-2,.61-3,.92l-2.72.76c-.54.15-.88.15-.84-.62.06-1.06-.65-1.27-1.51-1C117.08,36.13,115.73,36.53,114.38,36.92Z" style="fill:#7c7c7c"/><path d="M124.54,17.77a14,14,0,0,1,4-1.48c-.82.84-2.34.55-2.9,1.92C125.5,18.57,124.8,18.25,124.54,17.77Z" style="fill:#7c7c7c"/><path d="M130.14,45.39a6.23,6.23,0,0,1-.48-3.71A8.67,8.67,0,0,1,130.14,45.39Z" style="fill:#aaa"/><path d="M123.52,36.93c1.09-.21,2.1-.78,3.27-.57a4,4,0,0,1-3.78.73Z" style="fill:#aaa"/><path d="M163.73,49a5.66,5.66,0,0,1-.62-3.4c.21-.94.48-1.85,1.67-2Z" style="fill:#39f"/><path d="M50.06,75.23c.24.86.46,1.62-.24,2.11s-1.45,0-2-.47a4.56,4.56,0,0,1-1.43-2.67,1.32,1.32,0,0,1,.43-1.4c.54-.42,1.08-.16,1.56.14A4,4,0,0,1,50.06,75.23Z" style="fill:#39f"/><path d="M44.26,62.18a3.11,3.11,0,0,1,2.49,2.53c.47,1.74-.18,2.47-2,2.24a4.22,4.22,0,0,1-1.52-3A1.88,1.88,0,0,1,44.26,62.18Z" style="fill:#39f"/><path d="M55.64,80.15c.16-1,.63-1.56,1.71-1.39a3.44,3.44,0,0,1,2.51,2.73c.06,1.17-.77,1.36-1.64,1.49A4.41,4.41,0,0,1,55.64,80.15Z" style="fill:#39f"/><path d="M40.08,67.38a5,5,0,0,1,.08,1.06c-.09.94-.6,1.25-1.47.78A4.21,4.21,0,0,1,37,65.67c.16-1,.81-1.3,1.62-.72A4.29,4.29,0,0,1,40.08,67.38Z" style="fill:#39f"/><path d="M69.93,92.65c.7-1.44,1.81-1.06,2.86-.58A2.07,2.07,0,0,1,74,94.9C72,95.34,70.7,94.64,69.93,92.65Z" style="fill:#39f"/><path d="M64.53,90.35c.12.55.06,1.13-.74,1.32-1.11.26-2.94-1-3.27-2.25a1,1,0,0,1,.67-1.33C62.25,87.74,64.14,89,64.53,90.35Z" style="fill:#39f"/><path d="M55.11,86.36c.27,1.07-.29,1.64-1.29,1.31a3.47,3.47,0,0,1-2.38-2.38c-.12-.41-.26-.83.14-1.17A1.12,1.12,0,0,1,52.77,84,4.17,4.17,0,0,1,55.11,86.36Z" style="fill:#39f"/><path d="M42.73,79.65c-.18-.63-.4-1.19.09-1.57s1,0,1.4.28A4.53,4.53,0,0,1,46,81a.94.94,0,0,1-.27,1,.9.9,0,0,1-1.06,0A4.42,4.42,0,0,1,42.73,79.65Z" style="fill:#39f"/><path d="M38.39,76.85c-1.19-1.88-2.8-3.47-3.86-5.44a4.28,4.28,0,0,1,3.62,3.51C38.29,75.55,38.31,76.2,38.39,76.85Z" style="fill:#39f"/><path d="M163,30.35a7.68,7.68,0,0,1,.33,2.9c-.11.52-.25,1-.84,1.17s-1-.39-1.25-.9a4.57,4.57,0,0,1-.15-3.81C162,29.14,162.51,29.71,163,30.35Z" style="fill:#39f"/><path d="M102.7,67.3a2.37,2.37,0,0,1,1.59-3.25,2.34,2.34,0,0,1,3,1.8A2.3,2.3,0,0,1,105.77,69,2.34,2.34,0,0,1,102.7,67.3Z" style="fill:#39f"/><path d="M99.69,56.86a2.31,2.31,0,0,1,1.62-3.09,2.5,2.5,0,1,1-1.62,3.09Z" style="fill:#39f"/><path d="M94.28,61.41a2.33,2.33,0,0,1-1.49,3,2.6,2.6,0,0,1-3.15-1.7,2.36,2.36,0,0,1,1.57-3A2.48,2.48,0,0,1,94.28,61.41Z" style="fill:#39f"/><path d="M113.1,53.46A2.21,2.21,0,0,1,116,55a2.54,2.54,0,0,1-1.71,3.24,2.31,2.31,0,0,1-2.87-1.6A2.45,2.45,0,0,1,113.1,53.46Z" style="fill:#39f"/><path d="M123.16,58.73a2.11,2.11,0,0,1,2.72,1.38,2.63,2.63,0,0,1-1.73,3.27A2.1,2.1,0,0,1,121.42,62,2.79,2.79,0,0,1,123.16,58.73Z" style="fill:#39f"/><path d="M85.75,69.4a2.64,2.64,0,0,1,3.06,1.88,2.07,2.07,0,0,1-1.52,2.61,2.57,2.57,0,0,1-3-1.88A2,2,0,0,1,85.75,69.4Z" style="fill:#39f"/><path d="M118.24,68.76a2.42,2.42,0,0,1-1.73,3,2.09,2.09,0,0,1-2.73-1.32,2.41,2.41,0,0,1,1.64-3A2.11,2.11,0,0,1,118.24,68.76Z" style="fill:#39f"/><path d="M96.54,72.49a2.56,2.56,0,0,1,3.07,1.63A2.23,2.23,0,0,1,98,76.75a2.47,2.47,0,0,1-3-1.65A2.11,2.11,0,0,1,96.54,72.49Z" style="fill:#39f"/><path d="M131,70c-.16.46-.32.92-.47,1.38a5.7,5.7,0,0,1-.64.56c-.92.61-1.91,1-2.82.08a2,2,0,0,1-.17-2.7,2.41,2.41,0,0,1,2.87-1.2C130.67,68.35,130.88,69.14,131,70Z" style="fill:#39f"/><path d="M110.36,76.94a2.34,2.34,0,1,1-2.85-1.39A2.23,2.23,0,0,1,110.36,76.94Z" style="fill:#39f"/><path d="M86.22,80.14a2.51,2.51,0,0,1,3.17,1.61A1.64,1.64,0,0,1,88.22,84,2.63,2.63,0,0,1,85,82.43,1.7,1.7,0,0,1,86.22,80.14Z" style="fill:#39f"/><path d="M120.44,78.22a2.23,2.23,0,0,1-1.64,2.72,1.93,1.93,0,0,1-2.61-1,2.37,2.37,0,0,1,1.69-2.86A2,2,0,0,1,120.44,78.22Z" style="fill:#39f"/><path d="M102.64,83.78a1.88,1.88,0,0,1-1.42,2.39,2.34,2.34,0,0,1-2.9-1.37,1.83,1.83,0,0,1,1.44-2.35A2.22,2.22,0,0,1,102.64,83.78Z" style="fill:#39f"/><path d="M129.48,78.93c.5,1.58.25,2.2-1.38,3.43-.91.17-1.84.31-2.36-.7a2,2,0,0,1,.66-2.52A2.23,2.23,0,0,1,129.48,78.93Z" style="fill:#39f"/><path d="M112.77,85.58a2,2,0,0,1-1.42,2.4,2,2,0,0,1-2.8-1.11,2,2,0,0,1,1.51-2.36A2.05,2.05,0,0,1,112.77,85.58Z" style="fill:#39f"/><path d="M95.64,90.27c.2.79-.39,1.38-1.35,1.66a2.53,2.53,0,0,1-3-1.51c-.27-1.1.33-1.69,1.3-2A2.46,2.46,0,0,1,95.64,90.27Z" style="fill:#39f"/><path d="M121.55,87.16a1.47,1.47,0,0,1,2,.93,2.17,2.17,0,0,1-1.74,2.5c-1,.24-1.82.06-2.17-1S120.13,87.58,121.55,87.16Z" style="fill:#39f"/><path d="M102.16,92.68a2.08,2.08,0,0,1,2.69,1.16c.25,1-.4,1.6-1.27,1.91a2.25,2.25,0,0,1-2.82-1.24C100.57,93.69,101.12,93,102.16,92.68Z" style="fill:#39f"/><path d="M113.1,95.28c-1,.07-1.95,0-2.27-1.15-.25-.9.53-1.8,1.72-2,1-.18,2,0,2.18,1.19S114,94.92,113.1,95.28Z" style="fill:#39f"/><path d="M159.47,42.21a4,4,0,0,1-.23,3.59,1.09,1.09,0,0,1-2-.07,4.17,4.17,0,0,1-.38-3.15c.17-.73.45-1.56,1.36-1.59S159.34,41.8,159.47,42.21Z" style="fill:#39f"/><path d="M154,34a2.79,2.79,0,0,1,.42-2.93,1,1,0,0,1,1.3-.23,2.85,2.85,0,0,1,1.29,2.8c0,.92-.16,2-1.25,2.08S154.27,35,154,34Z" style="fill:#39f"/><path d="M152,55.6c-.91-2-.74-3,.75-4.57.76-.2,1.42-.12,1.78.68a3.22,3.22,0,0,1-.33,3.21A1.67,1.67,0,0,1,152,55.6Z" style="fill:#39f"/><path d="M145.53,72.9A5,5,0,0,1,147,70.07c.86-.32,1.69-.55,2.06.65a3.19,3.19,0,0,1-1.84,3.34C146.2,74.37,145.71,73.84,145.53,72.9Z" style="fill:#39f"/><path d="M155.47,62.61A3.4,3.4,0,0,1,154.2,66c-.82.49-1.51.33-1.71-.66A3.3,3.3,0,0,1,153.66,62C154.43,61.36,155.19,61.65,155.47,62.61Z" style="fill:#39f"/><path d="M161,54.2a4.14,4.14,0,0,1-.77,3.13,1.06,1.06,0,0,1-1.11.47,1,1,0,0,1-.76-.92,4,4,0,0,1,.72-3.19,1.11,1.11,0,0,1,1.06-.57C160.74,53.21,160.88,53.67,161,54.2Z" style="fill:#39f"/><path d="M65.38,75c.32,1,.2,1.89-.92,2.3s-2.71-.65-3.12-2c-.3-1-.17-1.9,1-2.3S64.94,73.57,65.38,75Z" style="fill:#39f"/><path d="M55.86,69.71a2.75,2.75,0,0,1-3.66-3.06c.15-1.09.94-1.27,1.8-1.39C56.05,66.42,56.59,67.71,55.86,69.71Z" style="fill:#39f"/><path d="M70,86.64a3.41,3.41,0,0,1-2.29-2.84c.51-1.25,1.45-1.34,2.54-.93a2.69,2.69,0,0,1,1.86,2.69C71.8,86.72,70.89,86.72,70,86.64Z" style="fill:#39f"/><path d="M146.82,50.08A3.78,3.78,0,0,1,146.2,54c-1,.33-2,.73-2.7-.55a3,3,0,0,1,.57-3.52C145,49.05,145.94,49.3,146.82,50.08Z" style="fill:#39f"/><path d="M145.56,61.11c1.43,1.44,1.21,2.92-.71,4.57-1,.27-1.88.1-2.19-1.11a2.9,2.9,0,0,1,1.65-3.26A5.72,5.72,0,0,1,145.56,61.11Z" style="fill:#39f"/><path d="M150.94,39.64c.42,1.53-.21,3.14-1.29,3.47a1.9,1.9,0,0,1-2.24-1.61c-.38-1.48.33-3.2,1.47-3.41C150.17,37.84,150.55,38.84,150.94,39.64Z" style="fill:#39f"/><polygon points="47.05 39.08 33.67 41.53 31.67 39.23 45.81 36.32 47.05 39.08" style="fill:#aaa"/><path d="M45.36,39.38a64.2,64.2,0,0,1-6.49,1.29c-.67.14-1.41.24-1.67,1.06a.86.86,0,0,1-.26-.79c0-2.48,0-2.48,2.59-3.14l1.09-.29C43.11,36.93,44.75,36.89,45.36,39.38Z" style="fill:#606060"/></g></g></svg>